{
    "asset" : {
        "generator" : "Khronos glTF Blender I/O v1.7.7",
        "version" : "2.0"
    },
    "extensionsUsed" : [
        "KHR_materials_unlit"
    ],
    "scene" : 0,
    "scenes" : [
        {
            "name" : "Scene",
            "nodes" : [
                9
            ]
        }
    ],
    "nodes" : [
        {
            "mesh" : 0,
            "name" : "Cylinder001_Material #108_0"
        },
        {
            "mesh" : 1,
            "name" : "Cylinder001_Material #109_0"
        },
        {
            "mesh" : 2,
            "name" : "Cylinder001_Material #29_0"
        },
        {
            "mesh" : 3,
            "name" : "Cylinder001_Material #41_0"
        },
        {
            "children" : [
                0,
                1,
                2,
                3
            ],
            "name" : "Cylinder001",
            "rotation" : [
                0,
                -0.04361937567591667,
                0,
                0.9990482330322266
            ],
            "scale" : [
                0.1585170030593872,
                0.13257500529289246,
                0.1630840003490448
            ],
            "translation" : [
                5.211320400238037,
                -0.40639185905456543,
                13.878582954406738
            ]
        },
        {
            "mesh" : 4,
            "name" : "Cylinder002_Material #109_0"
        },
        {
            "children" : [
                5
            ],
            "name" : "Cylinder002",
            "rotation" : [
                0,
                -0.04361937567591667,
                0,
                0.9990482330322266
            ],
            "scale" : [
                0.1585170030593872,
                0.13257500529289246,
                0.1630840003490448
            ],
            "translation" : [
                5.211320400238037,
                -0.40639185905456543,
                13.878582954406738
            ]
        },
        {
            "children" : [
                4,
                6
            ],
            "name" : "RootNode"
        },
        {
            "children" : [
                7
            ],
            "name" : "841406b470954866b6a79db7a51cf459.fbx",
            "rotation" : [
                1,
                0,
                0,
                0
            ],
            "scale" : [
                0.02539999969303608,
                0.02539999969303608,
                0.02539999969303608
            ]
        },
        {
            "children" : [
                8
            ],
            "name" : "Sketchfab_model",
            "rotation" : [
                0.42543306946754456,
                0.5648068785667419,
                -0.5648068785667419,
                0.42543306946754456
            ],
            "scale" : [
                0.699999988079071,
                0.699999988079071,
                0.699999988079071
            ],
            "translation" : [
                0,
                -0.699999988079071,
                -0.10999999940395355
            ]
        }
    ],
    "materials" : [
        {
            "doubleSided" : true,
            "extensions" : {
                "KHR_materials_unlit" : {}
            },
            "name" : "Material_108",
            "pbrMetallicRoughness" : {
                "baseColorTexture" : {
                    "index" : 0
                },
                "metallicFactor" : 0,
                "roughnessFactor" : 0.9
            }
        },
        {
            "extensions" : {
                "KHR_materials_unlit" : {}
            },
            "name" : "Material_109",
            "pbrMetallicRoughness" : {
                "baseColorTexture" : {
                    "index" : 1
                },
                "metallicFactor" : 0,
                "roughnessFactor" : 0.9
            }
        },
        {
            "doubleSided" : true,
            "extensions" : {
                "KHR_materials_unlit" : {}
            },
            "name" : "Material_29",
            "pbrMetallicRoughness" : {
                "baseColorTexture" : {
                    "index" : 2
                },
                "metallicFactor" : 0,
                "roughnessFactor" : 0.9
            }
        },
        {
            "doubleSided" : true,
            "extensions" : {
                "KHR_materials_unlit" : {}
            },
            "name" : "Material_41",
            "pbrMetallicRoughness" : {
                "baseColorTexture" : {
                    "index" : 3
                },
                "metallicFactor" : 0,
                "roughnessFactor" : 0.9
            }
        }
    ],
    "meshes" : [
        {
            "name" : "Cylinder001_Material #108_0",
            "primitives" : [
                {
                    "attributes" : {
                        "POSITION" : 0,
                        "NORMAL" : 1,
                        "TEXCOORD_0" : 2
                    },
                    "indices" : 3,
                    "material" : 0
                }
            ]
        },
        {
            "name" : "Cylinder001_Material #109_0",
            "primitives" : [
                {
                    "attributes" : {
                        "POSITION" : 4,
                        "NORMAL" : 5,
                        "TEXCOORD_0" : 6
                    },
                    "indices" : 7,
                    "material" : 1
                }
            ]
        },
        {
            "name" : "Cylinder001_Material #29_0",
            "primitives" : [
                {
                    "attributes" : {
                        "POSITION" : 8,
                        "NORMAL" : 9,
                        "TEXCOORD_0" : 10
                    },
                    "indices" : 11,
                    "material" : 2
                }
            ]
        },
        {
            "name" : "Cylinder001_Material #41_0",
            "primitives" : [
                {
                    "attributes" : {
                        "POSITION" : 12,
                        "NORMAL" : 13,
                        "TEXCOORD_0" : 14
                    },
                    "indices" : 15,
                    "material" : 3
                }
            ]
        },
        {
            "name" : "Cylinder002_Material #109_0",
            "primitives" : [
                {
                    "attributes" : {
                        "POSITION" : 16,
                        "NORMAL" : 17,
                        "TEXCOORD_0" : 18
                    },
                    "indices" : 19,
                    "material" : 1
                }
            ]
        }
    ],
    "textures" : [
        {
            "sampler" : 0,
            "source" : 0
        },
        {
            "sampler" : 0,
            "source" : 1
        },
        {
            "sampler" : 0,
            "source" : 2
        },
        {
            "sampler" : 0,
            "source" : 3
        }
    ],
    "images" : [
        {
            "mimeType" : "image/png",
            "name" : "Material_108_baseColor",
            "uri" : "Material_108_baseColor.png"
        },
        {
            "mimeType" : "image/png",
            "name" : "Material_109_baseColor",
            "uri" : "Material_109_baseColor.png"
        },
        {
            "mimeType" : "image/png",
            "name" : "Material_29_baseColor",
            "uri" : "Material_29_baseColor.png"
        },
        {
            "mimeType" : "image/png",
            "name" : "Material_41_baseColor",
            "uri" : "Material_41_baseColor.png"
        }
    ],
    "accessors" : [
        {
            "bufferView" : 0,
            "componentType" : 5126,
            "count" : 4178,
            "max" : [
                -21.05813980102539,
                108.57329559326172,
                340.7947692871094
            ],
            "min" : [
                -172.6030731201172,
                -104.94335174560547,
                -8.413728713989258
            ],
            "type" : "VEC3"
        },
        {
            "bufferView" : 1,
            "componentType" : 5126,
            "count" : 4178,
            "type" : "VEC3"
        },
        {
            "bufferView" : 2,
            "componentType" : 5126,
            "count" : 4178,
            "type" : "VEC2"
        },
        {
            "bufferView" : 3,
            "componentType" : 5123,
            "count" : 6480,
            "type" : "SCALAR"
        },
        {
            "bufferView" : 4,
            "componentType" : 5126,
            "count" : 2100,
            "max" : [
                -103.53106689453125,
                103.98878479003906,
                327.6588134765625
            ],
            "min" : [
                -133.82334899902344,
                -115.83525085449219,
                301.4223937988281
            ],
            "type" : "VEC3"
        },
        {
            "bufferView" : 5,
            "componentType" : 5126,
            "count" : 2100,
            "type" : "VEC3"
        },
        {
            "bufferView" : 6,
            "componentType" : 5126,
            "count" : 2100,
            "type" : "VEC2"
        },
        {
            "bufferView" : 7,
            "componentType" : 5123,
            "count" : 3114,
            "type" : "SCALAR"
        },
        {
            "bufferView" : 8,
            "componentType" : 5126,
            "count" : 610,
            "max" : [
                -23.050674438476562,
                166.69964599609375,
                375.9610595703125
            ],
            "min" : [
                -168.75503540039062,
                -161.0791015625,
                234.76991271972656
            ],
            "type" : "VEC3"
        },
        {
            "bufferView" : 9,
            "componentType" : 5126,
            "count" : 610,
            "type" : "VEC3"
        },
        {
            "bufferView" : 10,
            "componentType" : 5126,
            "count" : 610,
            "type" : "VEC2"
        },
        {
            "bufferView" : 11,
            "componentType" : 5123,
            "count" : 2544,
            "type" : "SCALAR"
        },
        {
            "bufferView" : 12,
            "componentType" : 5126,
            "count" : 3640,
            "max" : [
                192.01565551757812,
                245.4938201904297,
                414.8179931640625
            ],
            "min" : [
                -198.3785858154297,
                -253.3426513671875,
                18.39082908630371
            ],
            "type" : "VEC3"
        },
        {
            "bufferView" : 13,
            "componentType" : 5126,
            "count" : 3640,
            "type" : "VEC3"
        },
        {
            "bufferView" : 14,
            "componentType" : 5126,
            "count" : 3640,
            "type" : "VEC2"
        },
        {
            "bufferView" : 15,
            "componentType" : 5123,
            "count" : 16056,
            "type" : "SCALAR"
        },
        {
            "bufferView" : 16,
            "componentType" : 5126,
            "count" : 10470,
            "max" : [
                194.25303649902344,
                247.71568298339844,
                417.1605224609375
            ],
            "min" : [
                -200.72779846191406,
                -255.6351776123047,
                -10.759645462036133
            ],
            "type" : "VEC3"
        },
        {
            "bufferView" : 17,
            "componentType" : 5126,
            "count" : 10470,
            "type" : "VEC3"
        },
        {
            "bufferView" : 18,
            "componentType" : 5126,
            "count" : 10470,
            "type" : "VEC2"
        },
        {
            "bufferView" : 19,
            "componentType" : 5123,
            "count" : 28194,
            "type" : "SCALAR"
        }
    ],
    "bufferViews" : [
        {
            "buffer" : 0,
            "byteLength" : 50136,
            "byteOffset" : 0
        },
        {
            "buffer" : 0,
            "byteLength" : 50136,
            "byteOffset" : 50136
        },
        {
            "buffer" : 0,
            "byteLength" : 33424,
            "byteOffset" : 100272
        },
        {
            "buffer" : 0,
            "byteLength" : 12960,
            "byteOffset" : 133696
        },
        {
            "buffer" : 0,
            "byteLength" : 25200,
            "byteOffset" : 146656
        },
        {
            "buffer" : 0,
            "byteLength" : 25200,
            "byteOffset" : 171856
        },
        {
            "buffer" : 0,
            "byteLength" : 16800,
            "byteOffset" : 197056
        },
        {
            "buffer" : 0,
            "byteLength" : 6228,
            "byteOffset" : 213856
        },
        {
            "buffer" : 0,
            "byteLength" : 7320,
            "byteOffset" : 220084
        },
        {
            "buffer" : 0,
            "byteLength" : 7320,
            "byteOffset" : 227404
        },
        {
            "buffer" : 0,
            "byteLength" : 4880,
            "byteOffset" : 234724
        },
        {
            "buffer" : 0,
            "byteLength" : 5088,
            "byteOffset" : 239604
        },
        {
            "buffer" : 0,
            "byteLength" : 43680,
            "byteOffset" : 244692
        },
        {
            "buffer" : 0,
            "byteLength" : 43680,
            "byteOffset" : 288372
        },
        {
            "buffer" : 0,
            "byteLength" : 29120,
            "byteOffset" : 332052
        },
        {
            "buffer" : 0,
            "byteLength" : 32112,
            "byteOffset" : 361172
        },
        {
            "buffer" : 0,
            "byteLength" : 125640,
            "byteOffset" : 393284
        },
        {
            "buffer" : 0,
            "byteLength" : 125640,
            "byteOffset" : 518924
        },
        {
            "buffer" : 0,
            "byteLength" : 83760,
            "byteOffset" : 644564
        },
        {
            "buffer" : 0,
            "byteLength" : 56388,
            "byteOffset" : 728324
        }
    ],
    "samplers" : [
        {
            "magFilter" : 9729,
            "minFilter" : 9987
        }
    ],
    "buffers" : [
        {
            "byteLength" : 784712,
            "uri" : "piu piu.bin"
        }
    ]
}
