{
    "asset" : {
        "generator" : "Khronos glTF Blender I/O v1.7.7",
        "version" : "2.0"
    },
    "scene" : 0,
    "scenes" : [
        {
            "name" : "Scene",
            "nodes" : [
                0
            ]
        }
    ],
    "nodes" : [
        {
            "mesh" : 0,
            "name" : "giftbox",
            "scale" : [
                0.02539999969303608,
                0.02539999969303608,
                0.02539999969303608
            ]
        }
    ],
    "materials" : [
        {
            "doubleSided" : true,
            "name" : "Material #2529",
            "pbrMetallicRoughness" : {
                "baseColorTexture" : {
                    "index" : 0
                },
                "metallicFactor" : 0,
                "roughnessFactor" : 0
            }
        }
    ],
    "meshes" : [
        {
            "name" : "Mesh.004",
            "primitives" : [
                {
                    "attributes" : {
                        "POSITION" : 0,
                        "NORMAL" : 1,
                        "TEXCOORD_0" : 2
                    },
                    "indices" : 3,
                    "material" : 0
                }
            ]
        }
    ],
    "textures" : [
        {
            "sampler" : 0,
            "source" : 0
        }
    ],
    "images" : [
        {
            "mimeType" : "image/png",
            "name" : "gift",
            "uri" : "gift.png"
        }
    ],
    "accessors" : [
        {
            "bufferView" : 0,
            "componentType" : 5126,
            "count" : 996,
            "max" : [
                18.571758270263672,
                17.458250045776367,
                18.57175636291504
            ],
            "min" : [
                -18.571758270263672,
                -17.458242416381836,
                -18.57175636291504
            ],
            "type" : "VEC3"
        },
        {
            "bufferView" : 1,
            "componentType" : 5126,
            "count" : 996,
            "type" : "VEC3"
        },
        {
            "bufferView" : 2,
            "componentType" : 5126,
            "count" : 996,
            "type" : "VEC2"
        },
        {
            "bufferView" : 3,
            "componentType" : 5123,
            "count" : 2952,
            "type" : "SCALAR"
        }
    ],
    "bufferViews" : [
        {
            "buffer" : 0,
            "byteLength" : 11952,
            "byteOffset" : 0
        },
        {
            "buffer" : 0,
            "byteLength" : 11952,
            "byteOffset" : 11952
        },
        {
            "buffer" : 0,
            "byteLength" : 7968,
            "byteOffset" : 23904
        },
        {
            "buffer" : 0,
            "byteLength" : 5904,
            "byteOffset" : 31872
        }
    ],
    "samplers" : [
        {
            "magFilter" : 9729,
            "minFilter" : 9987
        }
    ],
    "buffers" : [
        {
            "byteLength" : 37776,
            "uri" : "giftbox.bin"
        }
    ]
}
