{
    "asset" : {
        "generator" : "Khronos glTF Blender I/O v1.7.7",
        "version" : "2.0"
    },
    "scene" : 0,
    "scenes" : [
        {
            "name" : "Scene",
            "nodes" : [
                10
            ]
        }
    ],
    "nodes" : [
        {
            "mesh" : 0,
            "name" : "nimbus.001_0"
        },
        {
            "children" : [
                0
            ],
            "name" : "nimbus.001"
        },
        {
            "mesh" : 1,
            "name" : "nimbus.002_0"
        },
        {
            "children" : [
                2
            ],
            "name" : "nimbus.002"
        },
        {
            "mesh" : 2,
            "name" : "nimbus.003_0"
        },
        {
            "children" : [
                4
            ],
            "name" : "nimbus.003"
        },
        {
            "children" : [
                1,
                3,
                5
            ],
            "name" : "Empty",
            "rotation" : [
                -0.05197936296463013,
                0.04926064983010292,
                -0.001640241825953126,
                0.9974311590194702
            ],
            "scale" : [
                0.8924055099487305,
                0.8924071788787842,
                0.8924035429954529
            ],
            "translation" : [
                0.160630002617836,
                -0.17024999856948853,
                4.807849884033203
            ]
        },
        {
            "mesh" : 3,
            "name" : "mentor roman retopo_0"
        },
        {
            "children" : [
                7
            ],
            "name" : "mentor roman retopo",
            "translation" : [
                -0.2664699852466583,
                0.12019000202417374,
                1.326050043106079
            ]
        },
        {
            "children" : [
                6,
                8
            ],
            "name" : "Root"
        },
        {
            "children" : [
                9
            ],
            "name" : "Sketchfab_model.001",
            "rotation" : [
                -0.7071068286895752,
                0,
                0,
                0.7071068286895752
            ],
            "scale" : [
                0.30000001192092896,
                0.30000001192092896,
                0.30000001192092896
            ],
            "translation" : [
                0,
                -0.7799999713897705,
                0
            ]
        }
    ],
    "animations" : [
        {
            "channels" : [
                {
                    "sampler" : 0,
                    "target" : {
                        "node" : 3,
                        "path" : "rotation"
                    }
                },
                {
                    "sampler" : 1,
                    "target" : {
                        "node" : 1,
                        "path" : "rotation"
                    }
                }
            ],
            "name" : "Take 01",
            "samplers" : [
                {
                    "input" : 16,
                    "interpolation" : "LINEAR",
                    "output" : 17
                },
                {
                    "input" : 16,
                    "interpolation" : "LINEAR",
                    "output" : 18
                }
            ]
        }
    ],
    "materials" : [
        {
            "alphaMode" : "BLEND",
            "doubleSided" : true,
            "emissiveFactor" : [
                1,
                0,
                0.21807634830474854
            ],
            "name" : "Crown",
            "pbrMetallicRoughness" : {
                "baseColorFactor" : [
                    0,
                    0,
                    0,
                    1
                ],
                "baseColorTexture" : {
                    "index" : 0
                },
                "metallicFactor" : 0,
                "roughnessFactor" : 0.6000000238418579
            }
        },
        {
            "doubleSided" : true,
            "emissiveFactor" : [
                0.47999998927116394,
                0.47999998927116394,
                0.47999998927116394
            ],
            "emissiveTexture" : {
                "index" : 1
            },
            "name" : "Stone",
            "pbrMetallicRoughness" : {
                "baseColorFactor" : [
                    0.06790123134851456,
                    0.06790123134851456,
                    0.06790123134851456,
                    1
                ],
                "metallicFactor" : 0,
                "roughnessFactor" : 0.6000000238418579
            }
        }
    ],
    "meshes" : [
        {
            "name" : "nimbus.001_0",
            "primitives" : [
                {
                    "attributes" : {
                        "POSITION" : 0,
                        "NORMAL" : 1,
                        "TEXCOORD_0" : 2
                    },
                    "indices" : 3,
                    "material" : 0
                }
            ]
        },
        {
            "name" : "nimbus.002_0",
            "primitives" : [
                {
                    "attributes" : {
                        "POSITION" : 4,
                        "NORMAL" : 5,
                        "TEXCOORD_0" : 6
                    },
                    "indices" : 7,
                    "material" : 0
                }
            ]
        },
        {
            "name" : "nimbus.003_0",
            "primitives" : [
                {
                    "attributes" : {
                        "POSITION" : 8,
                        "NORMAL" : 9,
                        "TEXCOORD_0" : 10
                    },
                    "indices" : 11,
                    "material" : 0
                }
            ]
        },
        {
            "name" : "mentor roman retopo_0",
            "primitives" : [
                {
                    "attributes" : {
                        "POSITION" : 12,
                        "NORMAL" : 13,
                        "TEXCOORD_0" : 14
                    },
                    "indices" : 15,
                    "material" : 1
                }
            ]
        }
    ],
    "textures" : [
        {
            "sampler" : 0,
            "source" : 0
        },
        {
            "sampler" : 1,
            "source" : 1
        }
    ],
    "images" : [
        {
            "mimeType" : "image/png",
            "name" : "Crown_baseColor",
            "uri" : "Crown_baseColor.png"
        },
        {
            "mimeType" : "image/png",
            "name" : "Stone_emissive",
            "uri" : "Stone_emissive.png"
        }
    ],
    "accessors" : [
        {
            "bufferView" : 0,
            "componentType" : 5126,
            "count" : 714,
            "max" : [
                1.0479999780654907,
                1.0479999780654907,
                0.02621999941766262
            ],
            "min" : [
                -1.0479999780654907,
                -1.0479999780654907,
                -0.021530000492930412
            ],
            "type" : "VEC3"
        },
        {
            "bufferView" : 1,
            "componentType" : 5126,
            "count" : 714,
            "type" : "VEC3"
        },
        {
            "bufferView" : 2,
            "componentType" : 5126,
            "count" : 714,
            "type" : "VEC2"
        },
        {
            "bufferView" : 3,
            "componentType" : 5123,
            "count" : 786,
            "type" : "SCALAR"
        },
        {
            "bufferView" : 4,
            "componentType" : 5126,
            "count" : 594,
            "max" : [
                1.0479999780654907,
                1.0479700565338135,
                0.09032999724149704
            ],
            "min" : [
                -1.0429600477218628,
                -1.0427600145339966,
                -0.08946000039577484
            ],
            "type" : "VEC3"
        },
        {
            "bufferView" : 5,
            "componentType" : 5126,
            "count" : 594,
            "type" : "VEC3"
        },
        {
            "bufferView" : 6,
            "componentType" : 5126,
            "count" : 594,
            "type" : "VEC2"
        },
        {
            "bufferView" : 7,
            "componentType" : 5123,
            "count" : 618,
            "type" : "SCALAR"
        },
        {
            "bufferView" : 8,
            "componentType" : 5126,
            "count" : 50,
            "max" : [
                0.9368500113487244,
                1.0062299966812134,
                0.15488000214099884
            ],
            "min" : [
                -1.0478700399398804,
                -0.8392500281333923,
                -0.16102999448776245
            ],
            "type" : "VEC3"
        },
        {
            "bufferView" : 9,
            "componentType" : 5126,
            "count" : 50,
            "type" : "VEC3"
        },
        {
            "bufferView" : 10,
            "componentType" : 5126,
            "count" : 50,
            "type" : "VEC2"
        },
        {
            "bufferView" : 11,
            "componentType" : 5123,
            "count" : 54,
            "type" : "SCALAR"
        },
        {
            "bufferView" : 12,
            "componentType" : 5126,
            "count" : 37448,
            "max" : [
                2.083699941635132,
                0.9689800143241882,
                4.128270149230957
            ],
            "min" : [
                -1.502120018005371,
                -0.9922199845314026,
                -1.2962700128555298
            ],
            "type" : "VEC3"
        },
        {
            "bufferView" : 13,
            "componentType" : 5126,
            "count" : 37448,
            "type" : "VEC3"
        },
        {
            "bufferView" : 14,
            "componentType" : 5126,
            "count" : 37448,
            "type" : "VEC2"
        },
        {
            "bufferView" : 15,
            "componentType" : 5123,
            "count" : 218880,
            "type" : "SCALAR"
        },
        {
            "bufferView" : 16,
            "componentType" : 5126,
            "count" : 3749,
            "max" : [
                124.97500332991282
            ],
            "min" : [
                0.04166999657948812
            ],
            "type" : "SCALAR"
        },
        {
            "bufferView" : 17,
            "componentType" : 5126,
            "count" : 3749,
            "type" : "VEC4"
        },
        {
            "bufferView" : 18,
            "componentType" : 5126,
            "count" : 3749,
            "type" : "VEC4"
        }
    ],
    "bufferViews" : [
        {
            "buffer" : 0,
            "byteLength" : 8568,
            "byteOffset" : 0
        },
        {
            "buffer" : 0,
            "byteLength" : 8568,
            "byteOffset" : 8568
        },
        {
            "buffer" : 0,
            "byteLength" : 5712,
            "byteOffset" : 17136
        },
        {
            "buffer" : 0,
            "byteLength" : 1572,
            "byteOffset" : 22848
        },
        {
            "buffer" : 0,
            "byteLength" : 7128,
            "byteOffset" : 24420
        },
        {
            "buffer" : 0,
            "byteLength" : 7128,
            "byteOffset" : 31548
        },
        {
            "buffer" : 0,
            "byteLength" : 4752,
            "byteOffset" : 38676
        },
        {
            "buffer" : 0,
            "byteLength" : 1236,
            "byteOffset" : 43428
        },
        {
            "buffer" : 0,
            "byteLength" : 600,
            "byteOffset" : 44664
        },
        {
            "buffer" : 0,
            "byteLength" : 600,
            "byteOffset" : 45264
        },
        {
            "buffer" : 0,
            "byteLength" : 400,
            "byteOffset" : 45864
        },
        {
            "buffer" : 0,
            "byteLength" : 108,
            "byteOffset" : 46264
        },
        {
            "buffer" : 0,
            "byteLength" : 449376,
            "byteOffset" : 46372
        },
        {
            "buffer" : 0,
            "byteLength" : 449376,
            "byteOffset" : 495748
        },
        {
            "buffer" : 0,
            "byteLength" : 299584,
            "byteOffset" : 945124
        },
        {
            "buffer" : 0,
            "byteLength" : 437760,
            "byteOffset" : 1244708
        },
        {
            "buffer" : 0,
            "byteLength" : 14996,
            "byteOffset" : 1682468
        },
        {
            "buffer" : 0,
            "byteLength" : 59984,
            "byteOffset" : 1697464
        },
        {
            "buffer" : 0,
            "byteLength" : 59984,
            "byteOffset" : 1757448
        }
    ],
    "samplers" : [
        {
            "magFilter" : 9728,
            "minFilter" : 9984
        },
        {
            "magFilter" : 9729,
            "minFilter" : 9987
        }
    ],
    "buffers" : [
        {
            "byteLength" : 1817432,
            "uri" : "rhetorician.bin"
        }
    ]
}
