{
    "asset" : {
        "generator" : "Khronos glTF Blender I/O v1.7.7",
        "version" : "2.0"
    },
    "extensionsUsed" : [
        "KHR_materials_unlit"
    ],
    "scene" : 0,
    "scenes" : [
        {
            "name" : "Scene",
            "nodes" : [
                5
            ]
        }
    ],
    "nodes" : [
        {
            "mesh" : 0,
            "name" : "Object_2"
        },
        {
            "mesh" : 1,
            "name" : "Object_3"
        },
        {
            "mesh" : 2,
            "name" : "Object_4"
        },
        {
            "mesh" : 3,
            "name" : "Object_5"
        },
        {
            "children" : [
                0,
                1,
                2,
                3
            ],
            "name" : "1244.obj.cleaner.materialmerger.gles"
        },
        {
            "children" : [
                4
            ],
            "name" : "Sketchfab_model",
            "rotation" : [
                -0.47125792503356934,
                -0.5271773338317871,
                -0.5271773338317871,
                0.47125792503356934
            ],
            "scale" : [
                0.25,
                0.25,
                0.25
            ],
            "translation" : [
                0,
                -0.5499999523162842,
                0
            ]
        }
    ],
    "materials" : [
        {
            "alphaMode" : "BLEND",
            "extensions" : {
                "KHR_materials_unlit" : {}
            },
            "name" : "Material.003",
            "pbrMetallicRoughness" : {
                "baseColorFactor" : [
                    0.800000011920929,
                    0.800000011920929,
                    0.800000011920929,
                    0.044271260499954224
                ],
                "metallicFactor" : 0,
                "roughnessFactor" : 0.9
            }
        },
        {
            "doubleSided" : true,
            "extensions" : {
                "KHR_materials_unlit" : {}
            },
            "name" : "leaves",
            "pbrMetallicRoughness" : {
                "baseColorTexture" : {
                    "index" : 0
                },
                "metallicFactor" : 0,
                "roughnessFactor" : 0.9
            }
        },
        {
            "alphaMode" : "BLEND",
            "doubleSided" : true,
            "extensions" : {
                "KHR_materials_unlit" : {}
            },
            "name" : "veil",
            "pbrMetallicRoughness" : {
                "baseColorFactor" : [
                    1,
                    1,
                    1,
                    0.3604402542114258
                ],
                "baseColorTexture" : {
                    "index" : 1
                },
                "metallicFactor" : 0,
                "roughnessFactor" : 0.9
            }
        },
        {
            "alphaMode" : "BLEND",
            "doubleSided" : true,
            "extensions" : {
                "KHR_materials_unlit" : {}
            },
            "name" : "Material.004",
            "pbrMetallicRoughness" : {
                "baseColorTexture" : {
                    "index" : 2
                },
                "metallicFactor" : 0,
                "roughnessFactor" : 0.9
            }
        }
    ],
    "meshes" : [
        {
            "name" : "Object_0.001",
            "primitives" : [
                {
                    "attributes" : {
                        "POSITION" : 0,
                        "NORMAL" : 1,
                        "TEXCOORD_0" : 2
                    },
                    "indices" : 3,
                    "material" : 0
                }
            ]
        },
        {
            "name" : "Object_1.001",
            "primitives" : [
                {
                    "attributes" : {
                        "POSITION" : 4,
                        "NORMAL" : 5,
                        "TEXCOORD_0" : 6
                    },
                    "indices" : 7,
                    "material" : 1
                }
            ]
        },
        {
            "name" : "Object_2.001",
            "primitives" : [
                {
                    "attributes" : {
                        "POSITION" : 8,
                        "NORMAL" : 9,
                        "TEXCOORD_0" : 10
                    },
                    "indices" : 11,
                    "material" : 2
                }
            ]
        },
        {
            "name" : "Object_3.001",
            "primitives" : [
                {
                    "attributes" : {
                        "POSITION" : 12,
                        "NORMAL" : 13,
                        "TEXCOORD_0" : 14
                    },
                    "indices" : 15,
                    "material" : 3
                }
            ]
        }
    ],
    "textures" : [
        {
            "sampler" : 0,
            "source" : 0
        },
        {
            "sampler" : 0,
            "source" : 1
        },
        {
            "sampler" : 0,
            "source" : 2
        }
    ],
    "images" : [
        {
            "mimeType" : "image/png",
            "name" : "leaves_baseColor",
            "uri" : "leaves_baseColor.png"
        },
        {
            "mimeType" : "image/png",
            "name" : "veil_baseColor",
            "uri" : "veil_baseColor.png"
        },
        {
            "mimeType" : "image/png",
            "name" : "Material.002_baseColor",
            "uri" : "Material_002_baseColor.png"
        }
    ],
    "accessors" : [
        {
            "bufferView" : 0,
            "componentType" : 5126,
            "count" : 506,
            "max" : [
                2.265625,
                1.646435022354126,
                5.100649833679199
            ],
            "min" : [
                -2.1620829105377197,
                -2.981919050216675,
                0.3433229923248291
            ],
            "type" : "VEC3"
        },
        {
            "bufferView" : 1,
            "componentType" : 5126,
            "count" : 506,
            "type" : "VEC3"
        },
        {
            "bufferView" : 2,
            "componentType" : 5126,
            "count" : 506,
            "type" : "VEC2"
        },
        {
            "bufferView" : 3,
            "componentType" : 5123,
            "count" : 2640,
            "type" : "SCALAR"
        },
        {
            "bufferView" : 4,
            "componentType" : 5126,
            "count" : 36,
            "max" : [
                0.18555699288845062,
                0.42509400844573975,
                6.356781959533691
            ],
            "min" : [
                -0.3956199884414673,
                -0.9558659791946411,
                4.968739986419678
            ],
            "type" : "VEC3"
        },
        {
            "bufferView" : 5,
            "componentType" : 5126,
            "count" : 36,
            "type" : "VEC3"
        },
        {
            "bufferView" : 6,
            "componentType" : 5126,
            "count" : 36,
            "type" : "VEC2"
        },
        {
            "bufferView" : 7,
            "componentType" : 5123,
            "count" : 120,
            "type" : "SCALAR"
        },
        {
            "bufferView" : 8,
            "componentType" : 5126,
            "count" : 253,
            "max" : [
                2.206873893737793,
                1.5751539468765259,
                5.03844690322876
            ],
            "min" : [
                -2.1100170612335205,
                -2.906704902648926,
                0.4038099944591522
            ],
            "type" : "VEC3"
        },
        {
            "bufferView" : 9,
            "componentType" : 5126,
            "count" : 253,
            "type" : "VEC3"
        },
        {
            "bufferView" : 10,
            "componentType" : 5126,
            "count" : 253,
            "type" : "VEC2"
        },
        {
            "bufferView" : 11,
            "componentType" : 5123,
            "count" : 1146,
            "type" : "SCALAR"
        },
        {
            "bufferView" : 12,
            "componentType" : 5126,
            "count" : 1345,
            "max" : [
                1.2246270179748535,
                2.2625560760498047,
                7.6296892166137695
            ],
            "min" : [
                -1.319295048713684,
                -2.6184511184692383,
                -1.7438160181045532
            ],
            "type" : "VEC3"
        },
        {
            "bufferView" : 13,
            "componentType" : 5126,
            "count" : 1345,
            "type" : "VEC3"
        },
        {
            "bufferView" : 14,
            "componentType" : 5126,
            "count" : 1345,
            "type" : "VEC2"
        },
        {
            "bufferView" : 15,
            "componentType" : 5123,
            "count" : 6780,
            "type" : "SCALAR"
        }
    ],
    "bufferViews" : [
        {
            "buffer" : 0,
            "byteLength" : 6072,
            "byteOffset" : 0
        },
        {
            "buffer" : 0,
            "byteLength" : 6072,
            "byteOffset" : 6072
        },
        {
            "buffer" : 0,
            "byteLength" : 4048,
            "byteOffset" : 12144
        },
        {
            "buffer" : 0,
            "byteLength" : 5280,
            "byteOffset" : 16192
        },
        {
            "buffer" : 0,
            "byteLength" : 432,
            "byteOffset" : 21472
        },
        {
            "buffer" : 0,
            "byteLength" : 432,
            "byteOffset" : 21904
        },
        {
            "buffer" : 0,
            "byteLength" : 288,
            "byteOffset" : 22336
        },
        {
            "buffer" : 0,
            "byteLength" : 240,
            "byteOffset" : 22624
        },
        {
            "buffer" : 0,
            "byteLength" : 3036,
            "byteOffset" : 22864
        },
        {
            "buffer" : 0,
            "byteLength" : 3036,
            "byteOffset" : 25900
        },
        {
            "buffer" : 0,
            "byteLength" : 2024,
            "byteOffset" : 28936
        },
        {
            "buffer" : 0,
            "byteLength" : 2292,
            "byteOffset" : 30960
        },
        {
            "buffer" : 0,
            "byteLength" : 16140,
            "byteOffset" : 33252
        },
        {
            "buffer" : 0,
            "byteLength" : 16140,
            "byteOffset" : 49392
        },
        {
            "buffer" : 0,
            "byteLength" : 10760,
            "byteOffset" : 65532
        },
        {
            "buffer" : 0,
            "byteLength" : 13560,
            "byteOffset" : 76292
        }
    ],
    "samplers" : [
        {
            "magFilter" : 9729,
            "minFilter" : 9987
        }
    ],
    "buffers" : [
        {
            "byteLength" : 89852,
            "uri" : "mugi.bin"
        }
    ]
}
