{
    "asset" : {
        "generator" : "Khronos glTF Blender I/O v1.7.7",
        "version" : "2.0"
    },
    "scene" : 0,
    "scenes" : [
        {
            "name" : "Scene",
            "nodes" : [
                4
            ]
        }
    ],
    "nodes" : [
        {
            "mesh" : 0,
            "name" : "Object_4"
        },
        {
            "children" : [
                0
            ],
            "name" : "Mesh_0.006_0",
            "rotation" : [
                0,
                0.7100436091423035,
                0,
                0.7041577100753784
            ],
            "translation" : [
                -0.010923244059085846,
                0,
                -0.017285160720348358
            ]
        },
        {
            "children" : [
                1
            ],
            "name" : "GLTF_SceneRootNode",
            "rotation" : [
                0.7071068286895752,
                0,
                0,
                0.7071068286895752
            ]
        },
        {
            "children" : [
                2
            ],
            "name" : "root"
        },
        {
            "children" : [
                3
            ],
            "name" : "Sketchfab_model",
            "rotation" : [
                -0.493414044380188,
                -0.5065003633499146,
                -0.5065003633499146,
                0.493414044380188
            ],
            "scale" : [
                1.899999976158142,
                1.899999976158142,
                1.899999976158142
            ]
        }
    ],
    "materials" : [
        {
            "name" : "Material_0.001",
            "pbrMetallicRoughness" : {
                "baseColorTexture" : {
                    "index" : 0
                },
                "metallicFactor" : 0
            }
        }
    ],
    "meshes" : [
        {
            "name" : "Object_0.001",
            "primitives" : [
                {
                    "attributes" : {
                        "POSITION" : 0,
                        "NORMAL" : 1,
                        "TEXCOORD_0" : 2
                    },
                    "indices" : 3,
                    "material" : 0
                }
            ]
        }
    ],
    "textures" : [
        {
            "sampler" : 0,
            "source" : 0
        }
    ],
    "images" : [
        {
            "mimeType" : "image/jpeg",
            "name" : "Material_0.006_baseColor",
            "uri" : "Material_0_006_baseColor.jpg"
        }
    ],
    "accessors" : [
        {
            "bufferView" : 0,
            "componentType" : 5126,
            "count" : 18927,
            "max" : [
                0.23528234660625458,
                0.08737792074680328,
                0.2703854739665985
            ],
            "min" : [
                -0.26884540915489197,
                -0.045443564653396606,
                -0.270285427570343
            ],
            "type" : "VEC3"
        },
        {
            "bufferView" : 1,
            "componentType" : 5126,
            "count" : 18927,
            "type" : "VEC3"
        },
        {
            "bufferView" : 2,
            "componentType" : 5126,
            "count" : 18927,
            "type" : "VEC2"
        },
        {
            "bufferView" : 3,
            "componentType" : 5123,
            "count" : 93417,
            "type" : "SCALAR"
        }
    ],
    "bufferViews" : [
        {
            "buffer" : 0,
            "byteLength" : 227124,
            "byteOffset" : 0
        },
        {
            "buffer" : 0,
            "byteLength" : 227124,
            "byteOffset" : 227124
        },
        {
            "buffer" : 0,
            "byteLength" : 151416,
            "byteOffset" : 454248
        },
        {
            "buffer" : 0,
            "byteLength" : 186834,
            "byteOffset" : 605664
        }
    ],
    "samplers" : [
        {
            "magFilter" : 9729,
            "minFilter" : 9987
        }
    ],
    "buffers" : [
        {
            "byteLength" : 792500,
            "uri" : "cat.bin"
        }
    ]
}
