{
    "asset" : {
        "generator" : "Khronos glTF Blender I/O v1.7.7",
        "version" : "2.0"
    },
    "extensionsUsed" : [
        "KHR_materials_unlit"
    ],
    "scene" : 0,
    "scenes" : [
        {
            "name" : "Scene",
            "nodes" : [
                9
            ]
        }
    ],
    "nodes" : [
        {
            "mesh" : 0,
            "name" : "Box_Paper_0"
        },
        {
            "children" : [
                0
            ],
            "name" : "Box",
            "rotation" : [
                -0.7071068286895752,
                0,
                0,
                0.7071068286895752
            ]
        },
        {
            "mesh" : 1,
            "name" : "Placation_JSquat_0"
        },
        {
            "children" : [
                2
            ],
            "name" : "Placation",
            "rotation" : [
                -0.7071068286895752,
                0,
                0,
                0.7071068286895752
            ],
            "scale" : [
                1.718000054359436,
                1.718000054359436,
                1.718000054359436
            ],
            "translation" : [
                -0.436981201171875,
                3.600101947784424,
                0
            ]
        },
        {
            "mesh" : 2,
            "name" : "Ribbon_Ribbon_0"
        },
        {
            "children" : [
                4
            ],
            "name" : "Object_6",
            "rotation" : [
                0,
                0,
                -0.7071068286895752,
                0.7071068286895752
            ],
            "translation" : [
                0,
                0,
                15.239997863769531
            ]
        },
        {
            "children" : [
                5
            ],
            "name" : "Ribbon",
            "rotation" : [
                -0.7071068286895752,
                0,
                0,
                0.7071068286895752
            ]
        },
        {
            "children" : [
                1,
                3,
                6
            ],
            "name" : "RootNode"
        },
        {
            "children" : [
                7
            ],
            "name" : "Gift.FBX",
            "rotation" : [
                0.7071068286895752,
                0,
                0,
                0.7071068286895752
            ]
        },
        {
            "children" : [
                8
            ],
            "name" : "Sketchfab_model",
            "rotation" : [
                -0.12309202551841736,
                -0.6963105201721191,
                -0.6963105201721191,
                0.12309202551841736
            ],
            "scale" : [
                0.029999999329447746,
                0.029999999329447746,
                0.029999999329447746
            ],
            "translation" : [
                0,
                -0.24000000953674316,
                -0.019999999552965164
            ]
        }
    ],
    "materials" : [
        {
            "doubleSided" : true,
            "extensions" : {
                "KHR_materials_unlit" : {}
            },
            "name" : "Paper",
            "pbrMetallicRoughness" : {
                "baseColorTexture" : {
                    "index" : 0
                },
                "metallicFactor" : 0,
                "roughnessFactor" : 0.9
            }
        },
        {
            "alphaMode" : "BLEND",
            "doubleSided" : true,
            "extensions" : {
                "KHR_materials_unlit" : {}
            },
            "name" : "JSquat",
            "pbrMetallicRoughness" : {
                "baseColorTexture" : {
                    "index" : 1
                },
                "metallicFactor" : 0,
                "roughnessFactor" : 0.9
            }
        },
        {
            "doubleSided" : true,
            "extensions" : {
                "KHR_materials_unlit" : {}
            },
            "name" : "Ribbon",
            "pbrMetallicRoughness" : {
                "baseColorTexture" : {
                    "index" : 2
                },
                "metallicFactor" : 0,
                "roughnessFactor" : 0.9
            }
        }
    ],
    "meshes" : [
        {
            "name" : "Box_Paper_0",
            "primitives" : [
                {
                    "attributes" : {
                        "POSITION" : 0,
                        "NORMAL" : 1,
                        "TEXCOORD_0" : 2
                    },
                    "indices" : 3,
                    "material" : 0
                }
            ]
        },
        {
            "name" : "Placation_JSquat_0",
            "primitives" : [
                {
                    "attributes" : {
                        "POSITION" : 4,
                        "NORMAL" : 5,
                        "TEXCOORD_0" : 6
                    },
                    "indices" : 7,
                    "material" : 1
                }
            ]
        },
        {
            "name" : "Ribbon_Ribbon_0",
            "primitives" : [
                {
                    "attributes" : {
                        "POSITION" : 8,
                        "NORMAL" : 9,
                        "TEXCOORD_0" : 10
                    },
                    "indices" : 11,
                    "material" : 2
                }
            ]
        }
    ],
    "textures" : [
        {
            "sampler" : 0,
            "source" : 0
        },
        {
            "sampler" : 0,
            "source" : 1
        },
        {
            "sampler" : 0,
            "source" : 0
        }
    ],
    "images" : [
        {
            "mimeType" : "image/png",
            "name" : "Paper_baseColor",
            "uri" : "Paper_baseColor.png"
        },
        {
            "mimeType" : "image/png",
            "name" : "JSquat_baseColor",
            "uri" : "JSquat_baseColor.png"
        }
    ],
    "accessors" : [
        {
            "bufferView" : 0,
            "componentType" : 5126,
            "count" : 192,
            "max" : [
                15.46474552154541,
                23.85179328918457,
                15.239998817443848
            ],
            "min" : [
                -15.464744567871094,
                -23.85179328918457,
                0
            ],
            "type" : "VEC3"
        },
        {
            "bufferView" : 1,
            "componentType" : 5126,
            "count" : 192,
            "type" : "VEC3"
        },
        {
            "bufferView" : 2,
            "componentType" : 5126,
            "count" : 192,
            "type" : "VEC2"
        },
        {
            "bufferView" : 3,
            "componentType" : 5123,
            "count" : 756,
            "type" : "SCALAR"
        },
        {
            "bufferView" : 4,
            "componentType" : 5126,
            "count" : 4,
            "max" : [
                1.5087599754333496,
                2.1170899868011475,
                0
            ],
            "min" : [
                -1.5087599754333496,
                -2.1170899868011475,
                0
            ],
            "type" : "VEC3"
        },
        {
            "bufferView" : 5,
            "componentType" : 5126,
            "count" : 4,
            "type" : "VEC3"
        },
        {
            "bufferView" : 6,
            "componentType" : 5126,
            "count" : 4,
            "type" : "VEC2"
        },
        {
            "bufferView" : 7,
            "componentType" : 5123,
            "count" : 6,
            "type" : "SCALAR"
        },
        {
            "bufferView" : 8,
            "componentType" : 5126,
            "count" : 1112,
            "max" : [
                23.9617919921875,
                15.57474422454834,
                7.371166229248047
            ],
            "min" : [
                -23.9617919921875,
                -15.57474422454834,
                -15.454334259033203
            ],
            "type" : "VEC3"
        },
        {
            "bufferView" : 9,
            "componentType" : 5126,
            "count" : 1112,
            "type" : "VEC3"
        },
        {
            "bufferView" : 10,
            "componentType" : 5126,
            "count" : 1112,
            "type" : "VEC2"
        },
        {
            "bufferView" : 11,
            "componentType" : 5123,
            "count" : 3936,
            "type" : "SCALAR"
        }
    ],
    "bufferViews" : [
        {
            "buffer" : 0,
            "byteLength" : 2304,
            "byteOffset" : 0
        },
        {
            "buffer" : 0,
            "byteLength" : 2304,
            "byteOffset" : 2304
        },
        {
            "buffer" : 0,
            "byteLength" : 1536,
            "byteOffset" : 4608
        },
        {
            "buffer" : 0,
            "byteLength" : 1512,
            "byteOffset" : 6144
        },
        {
            "buffer" : 0,
            "byteLength" : 48,
            "byteOffset" : 7656
        },
        {
            "buffer" : 0,
            "byteLength" : 48,
            "byteOffset" : 7704
        },
        {
            "buffer" : 0,
            "byteLength" : 32,
            "byteOffset" : 7752
        },
        {
            "buffer" : 0,
            "byteLength" : 12,
            "byteOffset" : 7784
        },
        {
            "buffer" : 0,
            "byteLength" : 13344,
            "byteOffset" : 7796
        },
        {
            "buffer" : 0,
            "byteLength" : 13344,
            "byteOffset" : 21140
        },
        {
            "buffer" : 0,
            "byteLength" : 8896,
            "byteOffset" : 34484
        },
        {
            "buffer" : 0,
            "byteLength" : 7872,
            "byteOffset" : 43380
        }
    ],
    "samplers" : [
        {
            "magFilter" : 9729,
            "minFilter" : 9987
        }
    ],
    "buffers" : [
        {
            "byteLength" : 51252,
            "uri" : "gift.bin"
        }
    ]
}
