{
    "asset" : {
        "generator" : "Khronos glTF Blender I/O v1.7.7",
        "version" : "2.0"
    },
    "extensionsUsed" : [
        "KHR_materials_unlit"
    ],
    "scene" : 0,
    "scenes" : [
        {
            "name" : "Scene",
            "nodes" : [
                6
            ]
        }
    ],
    "nodes" : [
        {
            "mesh" : 0,
            "name" : "mesh_1"
        },
        {
            "children" : [
                0
            ],
            "name" : "cat_6",
            "scale" : [
                1.2108289003372192,
                1.2108289003372192,
                1.2108289003372192
            ],
            "translation" : [
                0.48426246643066406,
                7.722672939300537,
                -0.9926722645759583
            ]
        },
        {
            "mesh" : 1,
            "name" : "Object_4"
        },
        {
            "children" : [
                2
            ],
            "name" : "tail_1",
            "scale" : [
                1.2108289003372192,
                1.2108289003372192,
                1.2108289003372192
            ],
            "translation" : [
                0.48426246643066406,
                7.965067386627197,
                -0.9926722645759583
            ]
        },
        {
            "children" : [
                1,
                3
            ],
            "name" : "GLTF_SceneRootNode",
            "rotation" : [
                0.7071068286895752,
                0,
                0,
                0.7071068286895752
            ]
        },
        {
            "children" : [
                4
            ],
            "name" : "root"
        },
        {
            "children" : [
                5
            ],
            "name" : "Sketchfab_model",
            "rotation" : [
                -0.7071068286895752,
                0,
                0,
                0.7071068286895752
            ],
            "scale" : [
                0.10000000149011612,
                0.10000000149011612,
                0.10000000149011612
            ],
            "translation" : [
                0,
                -0.2585451006889343,
                0
            ]
        }
    ],
    "animations" : [
        {
            "channels" : [
                {
                    "sampler" : 0,
                    "target" : {
                        "node" : 0,
                        "path" : "weights"
                    }
                }
            ],
            "name" : "Animation",
            "samplers" : [
                {
                    "input" : 10,
                    "interpolation" : "LINEAR",
                    "output" : 11
                }
            ]
        }
    ],
    "materials" : [
        {
            "doubleSided" : true,
            "extensions" : {
                "KHR_materials_unlit" : {}
            },
            "name" : "Material.004",
            "pbrMetallicRoughness" : {
                "baseColorTexture" : {
                    "index" : 0
                },
                "metallicFactor" : 0,
                "roughnessFactor" : 0.9
            }
        }
    ],
    "meshes" : [
        {
            "extras" : {
                "targetNames" : [
                    "target_0"
                ]
            },
            "name" : "mesh_1",
            "primitives" : [
                {
                    "attributes" : {
                        "POSITION" : 0,
                        "NORMAL" : 1,
                        "TEXCOORD_0" : 2
                    },
                    "indices" : 3,
                    "material" : 0,
                    "targets" : [
                        {
                            "POSITION" : 4,
                            "NORMAL" : 5
                        }
                    ]
                }
            ],
            "weights" : [
                0
            ]
        },
        {
            "name" : "Object_0.001",
            "primitives" : [
                {
                    "attributes" : {
                        "POSITION" : 6,
                        "NORMAL" : 7,
                        "TEXCOORD_0" : 8
                    },
                    "indices" : 9,
                    "material" : 0
                }
            ]
        }
    ],
    "textures" : [
        {
            "sampler" : 0,
            "source" : 0
        }
    ],
    "images" : [
        {
            "mimeType" : "image/png",
            "name" : "Material.004_baseColor",
            "uri" : "Material_004_baseColor.png"
        }
    ],
    "accessors" : [
        {
            "bufferView" : 0,
            "componentType" : 5126,
            "count" : 358,
            "max" : [
                2.8494131565093994,
                2.779676914215088,
                3.5475950241088867
            ],
            "min" : [
                -2.8494131565093994,
                -7.958324909210205,
                -2.7204933166503906
            ],
            "type" : "VEC3"
        },
        {
            "bufferView" : 1,
            "componentType" : 5126,
            "count" : 358,
            "type" : "VEC3"
        },
        {
            "bufferView" : 2,
            "componentType" : 5126,
            "count" : 358,
            "type" : "VEC2"
        },
        {
            "bufferView" : 3,
            "componentType" : 5123,
            "count" : 1560,
            "type" : "SCALAR"
        },
        {
            "bufferView" : 4,
            "componentType" : 5126,
            "count" : 358,
            "max" : [
                0.5494085550308228,
                1.0924290418624878,
                0.28622400760650635
            ],
            "min" : [
                -0.5494085550308228,
                -1.077650785446167,
                -1.0830461978912354
            ],
            "type" : "VEC3"
        },
        {
            "bufferView" : 5,
            "componentType" : 5126,
            "count" : 358,
            "type" : "VEC3"
        },
        {
            "bufferView" : 6,
            "componentType" : 5126,
            "count" : 21,
            "max" : [
                0,
                -6.932683944702148,
                2.892805337905884
            ],
            "min" : [
                -3.411358118057251,
                -8.153916358947754,
                -2.7647643089294434
            ],
            "type" : "VEC3"
        },
        {
            "bufferView" : 7,
            "componentType" : 5126,
            "count" : 21,
            "type" : "VEC3"
        },
        {
            "bufferView" : 8,
            "componentType" : 5126,
            "count" : 21,
            "type" : "VEC2"
        },
        {
            "bufferView" : 9,
            "componentType" : 5123,
            "count" : 75,
            "type" : "SCALAR"
        },
        {
            "bufferView" : 10,
            "componentType" : 5126,
            "count" : 299,
            "max" : [
                9.973333330949147
            ],
            "min" : [
                0.03999999761581421
            ],
            "type" : "SCALAR"
        },
        {
            "bufferView" : 11,
            "componentType" : 5126,
            "count" : 299,
            "type" : "SCALAR"
        }
    ],
    "bufferViews" : [
        {
            "buffer" : 0,
            "byteLength" : 4296,
            "byteOffset" : 0
        },
        {
            "buffer" : 0,
            "byteLength" : 4296,
            "byteOffset" : 4296
        },
        {
            "buffer" : 0,
            "byteLength" : 2864,
            "byteOffset" : 8592
        },
        {
            "buffer" : 0,
            "byteLength" : 3120,
            "byteOffset" : 11456
        },
        {
            "buffer" : 0,
            "byteLength" : 4296,
            "byteOffset" : 14576
        },
        {
            "buffer" : 0,
            "byteLength" : 4296,
            "byteOffset" : 18872
        },
        {
            "buffer" : 0,
            "byteLength" : 252,
            "byteOffset" : 23168
        },
        {
            "buffer" : 0,
            "byteLength" : 252,
            "byteOffset" : 23420
        },
        {
            "buffer" : 0,
            "byteLength" : 168,
            "byteOffset" : 23672
        },
        {
            "buffer" : 0,
            "byteLength" : 150,
            "byteOffset" : 23840
        },
        {
            "buffer" : 0,
            "byteLength" : 1196,
            "byteOffset" : 23992
        },
        {
            "buffer" : 0,
            "byteLength" : 1196,
            "byteOffset" : 25188
        }
    ],
    "samplers" : [
        {
            "magFilter" : 9729,
            "minFilter" : 9987
        }
    ],
    "buffers" : [
        {
            "byteLength" : 26384,
            "uri" : "pop cat.bin"
        }
    ]
}
