{
    "asset" : {
        "generator" : "Khronos glTF Blender I/O v1.7.7",
        "version" : "2.0"
    },
    "extensionsUsed" : [
        "KHR_materials_unlit"
    ],
    "scene" : 0,
    "scenes" : [
        {
            "name" : "Scene",
            "nodes" : [
                4
            ]
        }
    ],
    "nodes" : [
        {
            "mesh" : 0,
            "name" : "mesh_0"
        },
        {
            "children" : [
                0
            ],
            "name" : "Doggy_0",
            "rotation" : [
                0.0566522441804409,
                0.004674630239605904,
                0.021973900496959686,
                -0.9981411695480347
            ],
            "scale" : [
                0.7787581086158752,
                0.7787580490112305,
                0.7787579894065857
            ]
        },
        {
            "children" : [
                1
            ],
            "name" : "GLTF_SceneRootNode.001",
            "rotation" : [
                0.7071068286895752,
                0,
                0,
                0.7071068286895752
            ]
        },
        {
            "children" : [
                2
            ],
            "name" : "root.001"
        },
        {
            "children" : [
                3
            ],
            "name" : "Sketchfab_model.001",
            "rotation" : [
                -0.7071068286895752,
                0,
                0,
                0.7071068286895752
            ],
            "scale" : [
                0.699999988079071,
                0.699999988079071,
                0.699999988079071
            ],
            "translation" : [
                0,
                -0.12157583236694336,
                0
            ]
        }
    ],
    "animations" : [
        {
            "channels" : [
                {
                    "sampler" : 0,
                    "target" : {
                        "node" : 0,
                        "path" : "weights"
                    }
                }
            ],
            "name" : "MorphBake",
            "samplers" : [
                {
                    "input" : 8,
                    "interpolation" : "LINEAR",
                    "output" : 9
                }
            ]
        }
    ],
    "materials" : [
        {
            "doubleSided" : true,
            "extensions" : {
                "KHR_materials_unlit" : {}
            },
            "name" : "Material.002",
            "pbrMetallicRoughness" : {
                "baseColorTexture" : {
                    "index" : 0
                },
                "metallicFactor" : 0,
                "roughnessFactor" : 0.9
            }
        }
    ],
    "meshes" : [
        {
            "extras" : {
                "targetNames" : [
                    "target_0",
                    "target_1"
                ]
            },
            "name" : "mesh_0",
            "primitives" : [
                {
                    "attributes" : {
                        "POSITION" : 0,
                        "NORMAL" : 1,
                        "TEXCOORD_0" : 2
                    },
                    "indices" : 3,
                    "material" : 0,
                    "targets" : [
                        {
                            "POSITION" : 4,
                            "NORMAL" : 5
                        },
                        {
                            "POSITION" : 6,
                            "NORMAL" : 7
                        }
                    ]
                }
            ],
            "weights" : [
                0,
                0
            ]
        }
    ],
    "textures" : [
        {
            "sampler" : 0,
            "source" : 0
        }
    ],
    "images" : [
        {
            "mimeType" : "image/png",
            "name" : "Material.001_baseColor",
            "uri" : "Material_001_baseColor.png"
        }
    ],
    "accessors" : [
        {
            "bufferView" : 0,
            "componentType" : 5126,
            "count" : 415,
            "max" : [
                1.2839009761810303,
                1.7478749752044678,
                1.0225566625595093
            ],
            "min" : [
                -1.4692695140838623,
                -1.112144947052002,
                -1.0380933284759521
            ],
            "type" : "VEC3"
        },
        {
            "bufferView" : 1,
            "componentType" : 5126,
            "count" : 415,
            "type" : "VEC3"
        },
        {
            "bufferView" : 2,
            "componentType" : 5126,
            "count" : 415,
            "type" : "VEC2"
        },
        {
            "bufferView" : 3,
            "componentType" : 5123,
            "count" : 1578,
            "type" : "SCALAR"
        },
        {
            "bufferView" : 4,
            "componentType" : 5126,
            "count" : 415,
            "max" : [
                0.1957327127456665,
                1.9073486328125e-06,
                0.11992651224136353
            ],
            "min" : [
                -0.06722468137741089,
                -0.18559956550598145,
                -0.10440599918365479
            ],
            "type" : "VEC3"
        },
        {
            "bufferView" : 5,
            "componentType" : 5126,
            "count" : 415,
            "type" : "VEC3"
        },
        {
            "bufferView" : 6,
            "componentType" : 5126,
            "count" : 415,
            "max" : [
                0.086212158203125,
                0.1824430227279663,
                0.29182469844818115
            ],
            "min" : [
                -0.2585794925689697,
                -0.2515472173690796,
                -0.5285455584526062
            ],
            "type" : "VEC3"
        },
        {
            "bufferView" : 7,
            "componentType" : 5126,
            "count" : 415,
            "type" : "VEC3"
        },
        {
            "bufferView" : 8,
            "componentType" : 5126,
            "count" : 62,
            "max" : [
                2.075
            ],
            "min" : [
                0.041666666666666664
            ],
            "type" : "SCALAR"
        },
        {
            "bufferView" : 9,
            "componentType" : 5126,
            "count" : 124,
            "type" : "SCALAR"
        }
    ],
    "bufferViews" : [
        {
            "buffer" : 0,
            "byteLength" : 4980,
            "byteOffset" : 0
        },
        {
            "buffer" : 0,
            "byteLength" : 4980,
            "byteOffset" : 4980
        },
        {
            "buffer" : 0,
            "byteLength" : 3320,
            "byteOffset" : 9960
        },
        {
            "buffer" : 0,
            "byteLength" : 3156,
            "byteOffset" : 13280
        },
        {
            "buffer" : 0,
            "byteLength" : 4980,
            "byteOffset" : 16436
        },
        {
            "buffer" : 0,
            "byteLength" : 4980,
            "byteOffset" : 21416
        },
        {
            "buffer" : 0,
            "byteLength" : 4980,
            "byteOffset" : 26396
        },
        {
            "buffer" : 0,
            "byteLength" : 4980,
            "byteOffset" : 31376
        },
        {
            "buffer" : 0,
            "byteLength" : 248,
            "byteOffset" : 36356
        },
        {
            "buffer" : 0,
            "byteLength" : 496,
            "byteOffset" : 36604
        }
    ],
    "samplers" : [
        {
            "magFilter" : 9729,
            "minFilter" : 9987
        }
    ],
    "buffers" : [
        {
            "byteLength" : 37100,
            "uri" : "doggy.bin"
        }
    ]
}
