{
  "asset": {
    "generator": "Khronos glTF Blender I/O v1.7.7",
    "version": "2.0"
  },
  "scene": 0,
  "scenes": [
    {
      "name": "Scene",
      "nodes": [0]
    }
  ],
  "nodes": [
    {
      "mesh": 0,
      "name": "violin"
    }
  ],
  "materials": [
    {
      "doubleSided": true,
      "name": "Material #2730.001",
      "pbrMetallicRoughness": {
        "baseColorTexture": {
          "index": 0
        },
        "metallicFactor": 0,
        "roughnessFactor": 0
      }
    }
  ],
  "meshes": [
    {
      "name": "Mesh.002",
      "primitives": [
        {
          "attributes": {
            "POSITION": 0,
            "NORMAL": 1,
            "TEXCOORD_0": 2
          },
          "indices": 3,
          "material": 0
        }
      ]
    }
  ],
  "textures": [
    {
      "sampler": 0,
      "source": 0
    }
  ],
  "images": [
    {
      "mimeType": "image/png",
      "name": "violin",
      "uri": "violin.png"
    }
  ],
  "accessors": [
    {
      "bufferView": 0,
      "componentType": 5126,
      "count": 2730,
      "max": [0.3074305057525635, 0.7563318014144897, 0.14086292684078217],
      "min": [-0.30743032693862915, -0.7563318014144897, -0.14086292684078217],
      "type": "VEC3"
    },
    {
      "bufferView": 1,
      "componentType": 5126,
      "count": 2730,
      "type": "VEC3"
    },
    {
      "bufferView": 2,
      "componentType": 5126,
      "count": 2730,
      "type": "VEC2"
    },
    {
      "bufferView": 3,
      "componentType": 5123,
      "count": 7764,
      "type": "SCALAR"
    }
  ],
  "bufferViews": [
    {
      "buffer": 0,
      "byteLength": 32760,
      "byteOffset": 0
    },
    {
      "buffer": 0,
      "byteLength": 32760,
      "byteOffset": 32760
    },
    {
      "buffer": 0,
      "byteLength": 21840,
      "byteOffset": 65520
    },
    {
      "buffer": 0,
      "byteLength": 15528,
      "byteOffset": 87360
    }
  ],
  "samplers": [
    {
      "magFilter": 9729,
      "minFilter": 9987
    }
  ],
  "buffers": [
    {
      "byteLength": 102888,
      "uri": "violin.bin"
    }
  ]
}
