{
    "asset" : {
        "generator" : "Khronos glTF Blender I/O v1.7.7",
        "version" : "2.0"
    },
    "scene" : 0,
    "scenes" : [
        {
            "name" : "Scene",
            "nodes" : [
                5
            ]
        }
    ],
    "nodes" : [
        {
            "mesh" : 0,
            "name" : "Beak.002"
        },
        {
            "mesh" : 1,
            "name" : "Eyes.002"
        },
        {
            "mesh" : 2,
            "name" : "Eyes.003"
        },
        {
            "mesh" : 3,
            "name" : "Legs.001"
        },
        {
            "mesh" : 4,
            "name" : "Sphere",
            "rotation" : [
                -0.05670487508177757,
                -0.9360693693161011,
                0.10488591343164444,
                0.3309949040412903
            ],
            "scale" : [
                0.48904556035995483,
                0.31381285190582275,
                0.48904553055763245
            ],
            "translation" : [
                0.011156320571899414,
                0.6811578273773193,
                -0.07229271531105042
            ]
        },
        {
            "children" : [
                0,
                1,
                2,
                3,
                4
            ],
            "mesh" : 5,
            "name" : "Body.003",
            "scale" : [
                0.6000000238418579,
                0.6000000238418579,
                0.6000000238418579
            ]
        }
    ],
    "materials" : [
        {
            "doubleSided" : true,
            "name" : "Beak.001",
            "pbrMetallicRoughness" : {
                "baseColorFactor" : [
                    0.8000000715255737,
                    0.23498833179473877,
                    0.07798253744840622,
                    1
                ],
                "metallicFactor" : 0,
                "roughnessFactor" : 0.800000011920929
            }
        },
        {
            "doubleSided" : true,
            "name" : "Eyebrow",
            "pbrMetallicRoughness" : {
                "baseColorFactor" : [
                    0.07657963037490845,
                    0.03177960216999054,
                    0.009735215455293655,
                    1
                ],
                "metallicFactor" : 0,
                "roughnessFactor" : 0.7824559807777405
            }
        },
        {
            "doubleSided" : true,
            "name" : "Eyes",
            "pbrMetallicRoughness" : {
                "baseColorFactor" : [
                    0,
                    0,
                    0,
                    1
                ],
                "metallicFactor" : 0,
                "roughnessFactor" : 0
            }
        },
        {
            "doubleSided" : true,
            "name" : "Hat",
            "pbrMetallicRoughness" : {
                "baseColorFactor" : [
                    1,
                    0.2243318408727646,
                    0.15819968283176422,
                    1
                ],
                "metallicFactor" : 0
            }
        },
        {
            "doubleSided" : true,
            "name" : "Body.001",
            "pbrMetallicRoughness" : {
                "baseColorFactor" : [
                    1,
                    0.7142376899719238,
                    0.26955997943878174,
                    1
                ],
                "metallicFactor" : 0,
                "roughnessFactor" : 0.800000011920929
            }
        }
    ],
    "meshes" : [
        {
            "name" : "Mesh.001",
            "primitives" : [
                {
                    "attributes" : {
                        "POSITION" : 0,
                        "NORMAL" : 1,
                        "TEXCOORD_0" : 2
                    },
                    "indices" : 3,
                    "material" : 0
                }
            ]
        },
        {
            "name" : "Mesh.002",
            "primitives" : [
                {
                    "attributes" : {
                        "POSITION" : 4,
                        "NORMAL" : 5,
                        "TEXCOORD_0" : 6
                    },
                    "indices" : 7,
                    "material" : 1
                }
            ]
        },
        {
            "name" : "Sphere.007",
            "primitives" : [
                {
                    "attributes" : {
                        "POSITION" : 8,
                        "NORMAL" : 9,
                        "TEXCOORD_0" : 10
                    },
                    "indices" : 11,
                    "material" : 2
                }
            ]
        },
        {
            "name" : "Cube.014",
            "primitives" : [
                {
                    "attributes" : {
                        "POSITION" : 12,
                        "NORMAL" : 13,
                        "TEXCOORD_0" : 14
                    },
                    "indices" : 15,
                    "material" : 0
                }
            ]
        },
        {
            "name" : "Mesh.003",
            "primitives" : [
                {
                    "attributes" : {
                        "POSITION" : 16,
                        "NORMAL" : 17,
                        "TEXCOORD_0" : 18
                    },
                    "indices" : 19,
                    "material" : 3
                }
            ]
        },
        {
            "name" : "Cube.013",
            "primitives" : [
                {
                    "attributes" : {
                        "POSITION" : 20,
                        "NORMAL" : 21,
                        "TEXCOORD_0" : 22
                    },
                    "indices" : 23,
                    "material" : 4
                }
            ]
        }
    ],
    "accessors" : [
        {
            "bufferView" : 0,
            "componentType" : 5126,
            "count" : 63,
            "max" : [
                0.1508074551820755,
                0.17519108951091766,
                0.8131030201911926
            ],
            "min" : [
                -0.1508074253797531,
                0.061855498701334,
                0.6105542778968811
            ],
            "type" : "VEC3"
        },
        {
            "bufferView" : 1,
            "componentType" : 5126,
            "count" : 63,
            "type" : "VEC3"
        },
        {
            "bufferView" : 2,
            "componentType" : 5126,
            "count" : 63,
            "type" : "VEC2"
        },
        {
            "bufferView" : 3,
            "componentType" : 5123,
            "count" : 240,
            "type" : "SCALAR"
        },
        {
            "bufferView" : 4,
            "componentType" : 5126,
            "count" : 118,
            "max" : [
                0.3604738116264343,
                0.34918129444122314,
                0.6097569465637207
            ],
            "min" : [
                -0.3604738116264343,
                0.2541215121746063,
                0.518667459487915
            ],
            "type" : "VEC3"
        },
        {
            "bufferView" : 5,
            "componentType" : 5126,
            "count" : 118,
            "type" : "VEC3"
        },
        {
            "bufferView" : 6,
            "componentType" : 5126,
            "count" : 118,
            "type" : "VEC2"
        },
        {
            "bufferView" : 7,
            "componentType" : 5123,
            "count" : 480,
            "type" : "SCALAR"
        },
        {
            "bufferView" : 8,
            "componentType" : 5126,
            "count" : 574,
            "max" : [
                0.3003929853439331,
                0.24267646670341492,
                0.6232897639274597
            ],
            "min" : [
                -0.3003929853439331,
                0.18546557426452637,
                0.5660789608955383
            ],
            "type" : "VEC3"
        },
        {
            "bufferView" : 9,
            "componentType" : 5126,
            "count" : 574,
            "type" : "VEC3"
        },
        {
            "bufferView" : 10,
            "componentType" : 5126,
            "count" : 574,
            "type" : "VEC2"
        },
        {
            "bufferView" : 11,
            "componentType" : 5123,
            "count" : 2880,
            "type" : "SCALAR"
        },
        {
            "bufferView" : 12,
            "componentType" : 5126,
            "count" : 186,
            "max" : [
                0.4891860783100128,
                -0.6707242727279663,
                0.2541598379611969
            ],
            "min" : [
                -0.4891860783100128,
                -0.8191081285476685,
                -0.2647657096385956
            ],
            "type" : "VEC3"
        },
        {
            "bufferView" : 13,
            "componentType" : 5126,
            "count" : 186,
            "type" : "VEC3"
        },
        {
            "bufferView" : 14,
            "componentType" : 5126,
            "count" : 186,
            "type" : "VEC2"
        },
        {
            "bufferView" : 15,
            "componentType" : 5123,
            "count" : 768,
            "type" : "SCALAR"
        },
        {
            "bufferView" : 16,
            "componentType" : 5126,
            "count" : 1665,
            "max" : [
                1.0378438234329224,
                1.0657567977905273,
                1.6771037578582764
            ],
            "min" : [
                -1.0378437042236328,
                0,
                -1.0433249473571777
            ],
            "type" : "VEC3"
        },
        {
            "bufferView" : 17,
            "componentType" : 5126,
            "count" : 1665,
            "type" : "VEC3"
        },
        {
            "bufferView" : 18,
            "componentType" : 5126,
            "count" : 1665,
            "type" : "VEC2"
        },
        {
            "bufferView" : 19,
            "componentType" : 5123,
            "count" : 7776,
            "type" : "SCALAR"
        },
        {
            "bufferView" : 20,
            "componentType" : 5126,
            "count" : 494,
            "max" : [
                0.8457475304603577,
                0.9933805465698242,
                0.7080239057540894
            ],
            "min" : [
                -0.8457475304603577,
                -0.729766845703125,
                -0.7080239057540894
            ],
            "type" : "VEC3"
        },
        {
            "bufferView" : 21,
            "componentType" : 5126,
            "count" : 494,
            "type" : "VEC3"
        },
        {
            "bufferView" : 22,
            "componentType" : 5126,
            "count" : 494,
            "type" : "VEC2"
        },
        {
            "bufferView" : 23,
            "componentType" : 5123,
            "count" : 2784,
            "type" : "SCALAR"
        }
    ],
    "bufferViews" : [
        {
            "buffer" : 0,
            "byteLength" : 756,
            "byteOffset" : 0
        },
        {
            "buffer" : 0,
            "byteLength" : 756,
            "byteOffset" : 756
        },
        {
            "buffer" : 0,
            "byteLength" : 504,
            "byteOffset" : 1512
        },
        {
            "buffer" : 0,
            "byteLength" : 480,
            "byteOffset" : 2016
        },
        {
            "buffer" : 0,
            "byteLength" : 1416,
            "byteOffset" : 2496
        },
        {
            "buffer" : 0,
            "byteLength" : 1416,
            "byteOffset" : 3912
        },
        {
            "buffer" : 0,
            "byteLength" : 944,
            "byteOffset" : 5328
        },
        {
            "buffer" : 0,
            "byteLength" : 960,
            "byteOffset" : 6272
        },
        {
            "buffer" : 0,
            "byteLength" : 6888,
            "byteOffset" : 7232
        },
        {
            "buffer" : 0,
            "byteLength" : 6888,
            "byteOffset" : 14120
        },
        {
            "buffer" : 0,
            "byteLength" : 4592,
            "byteOffset" : 21008
        },
        {
            "buffer" : 0,
            "byteLength" : 5760,
            "byteOffset" : 25600
        },
        {
            "buffer" : 0,
            "byteLength" : 2232,
            "byteOffset" : 31360
        },
        {
            "buffer" : 0,
            "byteLength" : 2232,
            "byteOffset" : 33592
        },
        {
            "buffer" : 0,
            "byteLength" : 1488,
            "byteOffset" : 35824
        },
        {
            "buffer" : 0,
            "byteLength" : 1536,
            "byteOffset" : 37312
        },
        {
            "buffer" : 0,
            "byteLength" : 19980,
            "byteOffset" : 38848
        },
        {
            "buffer" : 0,
            "byteLength" : 19980,
            "byteOffset" : 58828
        },
        {
            "buffer" : 0,
            "byteLength" : 13320,
            "byteOffset" : 78808
        },
        {
            "buffer" : 0,
            "byteLength" : 15552,
            "byteOffset" : 92128
        },
        {
            "buffer" : 0,
            "byteLength" : 5928,
            "byteOffset" : 107680
        },
        {
            "buffer" : 0,
            "byteLength" : 5928,
            "byteOffset" : 113608
        },
        {
            "buffer" : 0,
            "byteLength" : 3952,
            "byteOffset" : 119536
        },
        {
            "buffer" : 0,
            "byteLength" : 5568,
            "byteOffset" : 123488
        }
    ],
    "buffers" : [
        {
            "byteLength" : 129056,
            "uri" : "cool-chick.bin"
        }
    ]
}
